	<svg
		width="0"
		height="0"
		style="display: none"
		xmlns="http://www.w3.org/2000/svg"
	>
		<symbol fill="none" id="arrow-left" viewBox="0 0 50 50">
			<path
				d="m28.555 16-9 9 9 9"
				stroke="currentColor"
				stroke-width="1.2"
				stroke-linecap="round"
				stroke-linejoin="round"
			/>
		</symbol>
		<symbol fill="none" id="arrow-right" viewBox="0 0 50 50">
			<path
				d="m21.818 34 9-9-9-9"
				stroke="currentColor"
				stroke-width="1.2"
				stroke-linecap="round"
				stroke-linejoin="round"
			/>
		</symbol>
		<symbol fill="none" id="calendar" viewBox="0 0 32 32">
			<path
				d="M23 8H9a2 2 0 0 0-2 2v14a2 2 0 0 0 2 2h14a2 2 0 0 0 2-2V10a2 2 0 0 0-2-2zm-3-2v4m-8-4v4m-5 4h18"
				stroke="currentColor"
				stroke-width="2"
				stroke-linecap="round"
				stroke-linejoin="round"
			/>
		</symbol>
		<symbol fill="none" id="files" viewBox="0 0 32 32">
			<path
				d="M26 23a2 2 0 0 1-2 2H8a2 2 0 0 1-2-2V9a2 2 0 0 1 2-2h5l2 3h9a2 2 0 0 1 2 2v11z"
				stroke="currentColor"
				stroke-width="2"
				stroke-linecap="round"
				stroke-linejoin="round"
			/>
		</symbol>
		<symbol fill="none" id="logo-min" viewBox="0 0 32 32">
			<path
				d="M24 26.047H8v2.562h16v-2.562zm-1.778-.664H9.778l1.59-17.079h9.264l1.59 17.079zM20.725 3.275v.854h-1.871v-.854h-1.872v.854h-1.87v-.854H13.24v.854h-1.872v-.854h-1.87v3.131h13.005v-3.13h-1.778zM9.497 6.406l1.871 1.898h9.264l1.87-1.898H9.498z"
				fill="#26B99A"
			/>
			<path
				d="m8 26.047 1.778-1.329h12.444L24 26.047H8z"
				fill="#26B99A"
			/>
			<path d="M15.043 16.84h1.938v1.939h-1.938V16.84z" fill="#209E84" />
			<path
				d="M17.624 15.866a1.612 1.612 0 1 1-3.224 0 1.612 1.612 0 0 1 3.224 0z"
				fill="#209E84"
			/>
		</symbol>
		<symbol fill="none" id="news" viewBox="0 0 32 32">
			<path
				d="M10 10.775a.72.72 0 0 1 .176-.477.568.568 0 0 1 .424-.198H19c.16 0 .312.071.424.198a.72.72 0 0 1 .176.477.72.72 0 0 1-.176.477.568.568 0 0 1-.424.198h-8.4a.568.568 0 0 1-.424-.198.72.72 0 0 1-.176-.477zm6.6 3.375a.568.568 0 0 0-.424.198.72.72 0 0 0-.176.477c0 .179.063.35.176.477a.568.568 0 0 0 .424.198H19c.16 0 .312-.071.424-.198a.72.72 0 0 0 .176-.477.72.72 0 0 0-.176-.477.568.568 0 0 0-.424-.198h-2.4zm-.6 4.725c0-.18.063-.35.176-.477a.568.568 0 0 1 .424-.198H19c.16 0 .312.071.424.198a.72.72 0 0 1 .176.477.72.72 0 0 1-.176.477.568.568 0 0 1-.424.198h-2.4a.568.568 0 0 1-.424-.198.72.72 0 0 1-.176-.477zm-5.4-4.725a.568.568 0 0 0-.424.198.72.72 0 0 0-.176.477v4.05c0 .179.063.35.176.477a.568.568 0 0 0 .424.198h3.6c.16 0 .312-.071.424-.198a.72.72 0 0 0 .176-.477v-4.05a.72.72 0 0 0-.176-.477.568.568 0 0 0-.424-.198h-3.6zm.6 4.05v-2.7h2.4v2.7h-2.4z"
				fill="currentColor"
			/>
			<path
				d="M6.4 8.75c0-.716.253-1.403.703-1.91.45-.506 1.06-.79 1.697-.79h12c.636 0 1.247.284 1.697.79a2.88 2.88 0 0 1 .703 1.91v1.35c.637 0 1.247.284 1.697.79a2.88 2.88 0 0 1 .703 1.91v7.425c0 .895-.316 1.754-.879 2.386-.562.633-1.325.989-2.121.989H9.4c-.796 0-1.559-.356-2.121-.989-.563-.632-.879-1.49-.879-2.386V8.75zm15.6 0a1.44 1.44 0 0 0-.352-.955A1.137 1.137 0 0 0 20.8 7.4h-12c-.318 0-.624.142-.849.395a1.44 1.44 0 0 0-.351.955v11.475c0 .537.19 1.052.527 1.432.338.38.796.593 1.273.593h13.2c.477 0 .935-.213 1.273-.593a2.16 2.16 0 0 0 .527-1.432V12.8a1.44 1.44 0 0 0-.351-.955 1.137 1.137 0 0 0-.849-.395v8.775a.72.72 0 0 1-.176.477.568.568 0 0 1-.424.198.568.568 0 0 1-.424-.198.72.72 0 0 1-.176-.477V8.75z"
				fill="currentColor"
			/>
		</symbol>
		<symbol fill="none" id="social" viewBox="0 0 32 32">
			<path
				d="M22 12a3 3 0 1 0 0-6 3 3 0 0 0 0 6zm-12 7a3 3 0 1 0 0-6 3 3 0 0 0 0 6zm12 7a3 3 0 1 0 0-6 3 3 0 0 0 0 6zm-9.41-8.49 6.83 3.98m-.01-10.98-6.82 3.98"
				stroke="currentColor"
				stroke-width="2"
				stroke-linecap="round"
				stroke-linejoin="round"
			/>
		</symbol>
		<symbol fill="none" id="tasks" viewBox="0 0 32 32">
			<path
				fill-rule="evenodd"
				clip-rule="evenodd"
				d="M14 8h10a1 1 0 1 1 0 2H14a1 1 0 1 1 0-2zm0 7h10a1 1 0 0 1 0 2H14a1 1 0 0 1 0-2zm0 7h10a1 1 0 0 1 0 2H14a1 1 0 0 1 0-2zM9 11a2 2 0 1 1 0-4 2 2 0 0 1 0 4zm0 7a2 2 0 1 1 0-4 2 2 0 0 1 0 4zm0 7a2 2 0 1 1 0-4 2 2 0 0 1 0 4z"
				fill="currentColor"
			/>
		</symbol>
	</svg>